<?xml version="1.0" encoding="UTF-8"?>
<svg id="Layer_2" data-name="Layer 2" xmlns="http://www.w3.org/2000/svg" viewBox="0 0 317.69 110.47">
  <defs>
    <style>
      .cls-1 {
        fill: #fff5dc;
      }
    </style>
  </defs>
  <g id="Layer_1-2" data-name="Layer 1">
    <path class="cls-1" d="m14.72,48.41c1.69,0,3.29.17,4.8.52,1.51.35,2.89.92,4.13,1.71,1.24.8,2.34,1.85,3.31,3.17.96,1.28,1.76,2.87,2.38,4.77,1.14-.21,1.7-.81,1.7-1.82,0-.8-.29-1.8-.88-3.01-.55-1.21-1.46-2.39-2.74-3.53-1.24-1.14-2.89-2.11-4.96-2.9-2.03-.83-4.51-1.24-7.44-1.24-1.65,0-3.08.14-4.29.41-1.17.28-2.15.57-2.94.88-1.2-.62-2.29-1.42-3.25-2.39-.96-1-1.79-2.13-2.48-3.37-.65-1.25-1.17-2.59-1.55-4.05-.34-1.45-.52-2.94-.52-4.46,0-4.25.91-7.9,2.74-10.95,1.82-3.04,4.2-5.52,7.13-7.42,2.96-1.94,6.28-3.36,9.97-4.25,3.68-.9,7.39-1.35,11.1-1.35,3.34,0,6.37.21,9.09.62,2.72.42,5.15.97,7.28,1.66,2.13.66,3.99,1.42,5.58,2.28,1.62.83,2.98,1.68,4.08,2.54.38,1.11.67,2.32.88,3.63.21,1.31.31,2.68.31,4.1,0,.93-.09,1.92-.26,2.96-.14,1-.36,1.99-.67,2.96-.31.97-.71,1.88-1.19,2.75-.48.86-1.05,1.61-1.7,2.23-.55-.38-1.36-.8-2.43-1.25-1.07-.49-2.29-.92-3.67-1.3-1.34-.42-2.81-.76-4.39-1.04-1.58-.28-3.17-.42-4.75-.42-2.17,0-3.68.15-4.54.47-.83.31-1.24.79-1.24,1.45,0,.35.05.64.15.88.69-.17,1.45-.29,2.27-.36.83-.07,1.62-.1,2.38-.1,2.96,0,5.87.38,8.73,1.14,2.86.73,5.41,1.95,7.64,3.68,2.27,1.7,4.1,3.94,5.47,6.74,1.38,2.8,2.07,6.24,2.07,10.32,0,3.22-.69,6.26-2.07,9.13-1.38,2.87-3.41,5.4-6.09,7.57-2.65,2.18-5.96,3.91-9.92,5.19-3.92,1.28-8.47,1.92-13.63,1.92-2.65,0-5.13-.1-7.44-.31-2.31-.17-4.51-.49-6.61-.93-2.1-.42-4.11-.97-6.04-1.66-1.93-.73-3.84-1.59-5.73-2.6-1.14-1.66-2.07-3.42-2.79-5.29-.72-1.87-1.08-3.99-1.08-6.38,0-1.87.34-3.61,1.03-5.24.72-1.62,1.7-3.03,2.94-4.2,1.24-1.21,2.72-2.16,4.44-2.85,1.72-.69,3.61-1.04,5.68-1.04Z"/>
    <path class="cls-1" d="m91.82,18.68c-1.69.1-3.27.42-4.75.93-1.48.48-2.77,1.06-3.87,1.71-1.1.62-1.98,1.28-2.63,1.97-.62.66-.93,1.25-.93,1.76,0,.42.14.76.41,1.04.31.28.64.45.98.52.62-.73,1.41-1.43,2.38-2.13.96-.73,2.1-1.37,3.41-1.92,1.31-.59,2.81-1.06,4.49-1.4,1.69-.35,3.58-.52,5.68-.52,1.38,0,2.86.12,4.44.36,1.62.24,3.24.67,4.85,1.3,1.62.62,3.17,1.45,4.65,2.49,1.48,1,2.79,2.28,3.92,3.84,1.17,1.56,2.1,3.41,2.79,5.55.69,2.15,1.03,4.63,1.03,7.47,0,1.56-.04,3.22-.1,4.98-.03,1.76-.05,3.48-.05,5.14,0,2.39.26,4.36.77,5.91.52,1.56,1.5,2.78,2.94,3.68.03.28.05.62.05,1.04v.88c0,2.46-.38,4.64-1.14,6.54-.76,1.87-1.79,3.44-3.1,4.72s-2.84,2.25-4.6,2.9c-1.72.62-3.56.93-5.53.93-2.07,0-4.04-.29-5.94-.88-1.86-.55-3.51-1.47-4.96-2.75-1.41-1.31-2.55-3.01-3.41-5.08-.83-2.11-1.24-4.69-1.24-7.73,0-1.63.05-3.16.15-4.62.14-1.45.28-2.8.41-4.05.17-1.28.33-2.46.46-3.53.14-1.07.21-2.06.21-2.96,0-1.66-.19-2.78-.57-3.37-.34-.62-.91-.93-1.7-.93-.52,0-1,.14-1.45.41l.67,8.46c-.17,1.04-.33,2.09-.46,3.17-.1,1.04-.19,2.02-.26,2.96-.07.93-.12,1.78-.15,2.54-.03.76-.05,1.38-.05,1.87,0,2.7.26,4.93.77,6.69.55,1.76,1.17,3.29,1.86,4.57-1.51,1.59-3.49,2.87-5.94,3.84-2.41.93-5.16,1.4-8.26,1.4-1.55,0-3.13-.23-4.75-.67-1.58-.45-3.03-1.12-4.34-2.02-1.27-.93-2.32-2.08-3.15-3.42-.83-1.38-1.24-3.01-1.24-4.88V6.85c1.58-.93,3.53-1.71,5.84-2.33,2.34-.66,4.73-.99,7.18-.99,1.79,0,3.53.19,5.22.57,1.72.38,3.24.99,4.54,1.82,1.34.79,2.41,1.85,3.2,3.17.83,1.28,1.24,2.84,1.24,4.67v4.93Z"/>
    <path class="cls-1" d="m149.46,54.32c-.79,0-1.36.21-1.7.62-.31.38-.47.83-.47,1.35,0,.69.24,1.18.72,1.45.52.28,1.12.41,1.81.41,1.1,0,1.95-.28,2.53-.83.59-.55.88-1.56.88-3.01h-3.77Zm26.8-2.54c0,2.39.26,4.36.77,5.91.52,1.56,1.5,2.78,2.94,3.68.03.28.05.62.05,1.04v.88c0,2.63-.41,4.89-1.24,6.8-.83,1.9-1.91,3.48-3.25,4.72-1.31,1.21-2.81,2.11-4.49,2.7-1.69.59-3.41.88-5.17.88-1.24,0-2.46-.15-3.67-.47-1.17-.28-2.29-.71-3.36-1.3-1.03-.59-1.98-1.33-2.84-2.23-.83-.93-1.48-2.02-1.96-3.27-.58,0-1.03.16-1.34.47-.27.31-.41.73-.41,1.25,0,.48.15,1,.46,1.56.31.55.76,1.12,1.34,1.71-1.1.76-2.58,1.33-4.44,1.71-1.86.38-3.75.57-5.68.57-3.13,0-5.99-.43-8.57-1.3-2.55-.87-4.75-2.14-6.61-3.84-1.83-1.7-3.25-3.75-4.29-6.17-1-2.46-1.5-5.28-1.5-8.46s.53-6.12,1.6-8.51c1.1-2.42,2.58-4.41,4.44-5.97,1.86-1.59,4.01-2.77,6.46-3.53,2.48-.76,5.1-1.14,7.85-1.14,1.24,0,2.34.05,3.31.16.96.07,1.79.16,2.48.26.79.14,1.46.28,2.01.42.1-.35.15-.64.15-.88,0-.45-.24-.83-.72-1.14-.45-.31-1.05-.54-1.81-.67-.76-.17-1.64-.29-2.63-.36-1-.07-2.01-.1-3.05-.1-2.34,0-4.68.26-7.02.78-2.34.52-4.44,1.31-6.3,2.39-.76-1.28-1.38-2.91-1.86-4.88-.45-1.97-.67-3.98-.67-6.02,0-.97.05-1.94.15-2.91.14-1,.4-1.89.77-2.65.9-.42,2.03-.86,3.41-1.35,1.41-.52,3.03-.99,4.85-1.4,1.86-.45,3.89-.83,6.09-1.14,2.24-.31,4.63-.47,7.18-.47,4.44,0,8.32.5,11.62,1.5,3.34,1,6.11,2.46,8.31,4.36,2.2,1.87,3.86,4.18,4.96,6.95,1.1,2.73,1.65,5.83,1.65,9.29v10.17Z"/>
    <path class="cls-1" d="m209.31,73.1c-1.51,1.59-3.49,2.87-5.94,3.84-2.41.97-5.16,1.45-8.26,1.45-1.55,0-3.13-.23-4.75-.67-1.58-.45-3.03-1.12-4.34-2.02-1.27-.93-2.32-2.08-3.15-3.42-.83-1.38-1.24-3.01-1.24-4.88V6.85c1.58-.93,3.53-1.71,5.84-2.33,2.34-.66,4.73-.99,7.18-.99,1.79,0,3.53.19,5.22.57,1.72.38,3.24.99,4.54,1.82,1.34.79,2.41,1.85,3.2,3.17.83,1.28,1.24,2.84,1.24,4.67v5.5c0,2.59-.24,5.01-.72,7.26-.45,2.25-1.01,4.32-1.7,6.23-.24.38-.6.83-1.08,1.35-.48.52-.96,1.05-1.45,1.61-.45.55-.84,1.09-1.19,1.61-.35.52-.52.95-.52,1.3,0,.62.41,1.14,1.24,1.56,1.41-1.31,2.63-2.66,3.67-4.05,1.07-1.38,2.01-2.87,2.84-4.46.83-1.63,1.55-3.37,2.17-5.24.65-1.9,1.27-4.01,1.86-6.33.45-.07,1-.16,1.65-.26.69-.14,1.38-.26,2.07-.36.72-.14,1.4-.24,2.01-.31.65-.1,1.19-.16,1.6-.16,2.58,0,4.91.31,6.97.93,2.1.59,3.87,1.49,5.32,2.7,1.45,1.18,2.57,2.65,3.36,4.41.79,1.73,1.19,3.74,1.19,6.02,0,2.14-.36,4.1-1.09,5.86-.72,1.76-1.72,3.35-2.99,4.77-1.24,1.38-2.69,2.59-4.34,3.63-1.65,1-3.41,1.83-5.27,2.49.93.55,1.84,1.04,2.74,1.45.9.38,1.81.73,2.74,1.04.93.31,1.91.59,2.94.83,1.07.24,2.26.47,3.56.67.93,1.69,1.62,3.43,2.07,5.19.48,1.76.72,3.49.72,5.19,0,1.94-.31,3.77-.93,5.5-.59,1.73-1.5,3.25-2.74,4.57-1.21,1.28-2.74,2.3-4.6,3.06-1.82.73-3.96,1.09-6.4,1.09s-4.61-.47-6.61-1.4c-1.96-.97-3.68-2.33-5.16-4.1-1.48-1.76-2.68-3.91-3.61-6.43-.93-2.53-1.55-5.36-1.86-8.51l-2.48,1.09c0,1.18.12,2.4.36,3.68.24,1.28.55,2.54.93,3.79.41,1.21.9,2.39,1.45,3.53.55,1.14,1.14,2.16,1.76,3.06Z"/>
    <path class="cls-1" d="m247.51,44.67h3.2c.89,0,1.55-.16,1.96-.47.41-.31.62-.73.62-1.24,0-.21-.03-.41-.1-.62h-11.57c-.38-1.24-.67-2.61-.88-4.1-.17-1.52-.26-3.06-.26-4.62,0-1,.05-2.14.15-3.42.14-1.31.31-2.4.52-3.27,1.45-.9,2.88-1.87,4.29-2.91,1.45-1.04,2.72-1.97,3.82-2.8.31-.73.67-1.68,1.08-2.85.41-1.18.83-2.4,1.24-3.68.41-1.28.81-2.51,1.19-3.68.38-1.21.71-2.21.98-3.01,1.1-.28,2.57-.52,4.39-.73,1.83-.21,3.68-.31,5.58-.31,1.48,0,2.96.09,4.44.26,1.51.17,3.17.45,4.96.83v12.71h8.93c1,1.52,1.74,3.24,2.22,5.14.52,1.87.77,3.74.77,5.6,0,1.76-.26,3.65-.77,5.66-.48,1.97-1.22,3.68-2.22,5.14h-7.39v7.84c0,2.39.48,4.1,1.45,5.14.96,1,2.32,1.5,4.08,1.5h2.22c.28,1.04.52,2.14.72,3.32.24,1.18.36,2.35.36,3.53,0,4.81-1.5,8.47-4.49,11-3,2.52-7.27,3.79-12.81,3.79-2.79,0-5.34-.38-7.64-1.14-2.27-.76-4.24-1.92-5.89-3.48-1.65-1.56-2.93-3.49-3.82-5.81-.9-2.35-1.34-5.12-1.34-8.3v-14.99Z"/>
    <path class="cls-1" d="m287.64,27.55c.69-.45,1.38-.81,2.07-1.09.69-.28,1.43-.62,2.22-1.04-.65-.35-1.33-.83-2.01-1.45-.69-.62-1.32-1.37-1.91-2.23-.55-.9-1.02-1.92-1.39-3.06-.34-1.14-.52-2.42-.52-3.84,0-2.21.38-4.22,1.14-6.02.79-1.83,1.86-3.39,3.2-4.67,1.34-1.32,2.91-2.33,4.7-3.06,1.79-.73,3.72-1.09,5.78-1.09s4.03.38,5.78,1.14c1.79.76,3.34,1.8,4.65,3.11,1.31,1.32,2.32,2.89,3.05,4.72.76,1.8,1.14,3.75,1.14,5.86,0,1.8-.31,3.48-.93,5.03-.59,1.52-1.38,2.89-2.38,4.1-1,1.21-2.17,2.23-3.51,3.06-1.34.8-2.74,1.35-4.18,1.66,0,.52.1.98.31,1.4.24.38.64.57,1.19.57,1.72,0,3.51-.69,5.37-2.08.1.07.27.19.52.36.24.17.5.38.77.62.28.24.53.48.78.73.24.21.39.36.46.47v20.55c0,2.39.26,4.45.77,6.17.52,1.69,1.5,2.99,2.94,3.89.03.28.05.62.05,1.04v.88c0,2.63-.36,4.89-1.08,6.8-.72,1.9-1.74,3.48-3.05,4.72-1.31,1.21-2.88,2.11-4.7,2.7-1.79.59-3.75.88-5.89.88-1.65,0-3.39-.28-5.22-.83-1.79-.55-3.44-1.49-4.96-2.8-1.48-1.31-2.72-3.06-3.72-5.24-.96-2.21-1.45-4.96-1.45-8.25V27.55Z"/>
    <path class="cls-1" d="m95.52,105.53c2.27,0,3.68-.82,4.73-2.55h.11v.4c0,1.2.98,2.15,2.43,2.15,1.16,0,1.93-.51,1.93-1.12,0-1.06-1.48-.42-1.48-2.15v-5.53c-.03-3.45-1.4-5.29-5.18-5.29-3.52,0-5.79,1.91-5.79,3.43,0,.85.58,1.33,1.27,1.33.74,0,1.14-.48,1.48-1.3.63-1.33,1.56-2.23,2.91-2.23,1.56,0,2.09,1.01,2.09,2.12,0,1.25-.48,1.89-2.75,2.74-3.25,1.27-5.47,2.29-5.47,4.65,0,1.86,1.37,3.35,3.73,3.35Zm1.4-2.1c-1.24,0-2.04-.69-2.04-1.81s.69-1.83,2.75-2.66l2.62-1.04v1.49c0,2.71-1.64,4.01-3.33,4.01Z"/>
    <path class="cls-1" d="m112.91,89.91c1.14.05,2.01-.77,2.01-1.89s-.87-1.94-2.01-1.94-1.98.82-1.98,1.94.85,1.89,1.98,1.89Zm-2.99,20.56c2.67,0,4.55-1.83,4.55-6.11v-11.58c-.03-.85-.26-1.3-1.35-1.3s-3.33.72-3.33,1.46c0,.51.37.53,1.08,1.06.4.32.56.64.56,1.27v8.45c0,.45.11.96.21,1.41.24,1.12.5,2.2.03,3.05-.29.53-.69.82-1.4.82-.82,0-1.22-.69-1.35-1.59-.16-.77-.37-1.54-1.43-1.54-.87,0-1.43.61-1.43,1.43,0,1.41,1.16,3.16,3.86,3.16Z"/>
    <path class="cls-1" d="m123.12,105.53c4.26,0,7.38-3.03,7.38-7.25s-3.09-6.8-7.03-6.8-7.38,3-7.38,7.23c0,3.99,2.83,6.83,7.03,6.83Zm.71-1.49c-2.86,0-4.31-3.61-4.31-6.72,0-2.66,1.08-4.41,3.25-4.41,2.83,0,4.31,3.59,4.31,6.69,0,2.71-1.19,4.44-3.25,4.44Z"/>
    <path class="cls-1" d="m137.19,105.21c1.59,0,3.04-.74,4.18-2.5h.11v1.22c.03.88.24,1.28,1.14,1.28,1,0,3.38-.98,3.38-1.62,0-.53-.4-.69-1.24-1.14-.21-.16-.4-.43-.37-.88v-8.69c0-.98-.24-1.41-1.22-1.41-.48,0-2.09.43-2.88.93-.32.21-.5.42-.5.64,0,.5.42.64,1.24,1.09.21.13.34.37.34.69l-.03,4.12c0,2.26-.98,4.01-3.28,4.01-1.98,0-2.54-1.65-2.54-3.98v-6.11c-.03-.96-.24-1.38-1.22-1.38-.45,0-1.96.4-2.88.9-.32.21-.53.45-.53.66,0,.5.42.64,1.24,1.09.21.13.34.37.34.69v4.12c0,3.48.58,6.27,4.71,6.27Z"/>
    <path class="cls-1" d="m147.72,105.13h3.57c.82,0,1.22-.19,1.22-.69,0-.77-1.48-.8-1.48-1.86v-5.02c0-2.42.85-2.9,1.72-2.9.69,0,.93.19,1.51.19.95,0,1.74-.56,1.74-1.78,0-.9-.58-1.62-1.82-1.62-1.11,0-2.43.82-3.2,2.52h-.11v-1.22c0-.88-.21-1.28-1.14-1.28-1,0-3.38.98-3.38,1.62,0,.53.42.69,1.24,1.14.24.16.42.43.4.88v7.46c0,1.06-1.48,1.09-1.48,1.86,0,.51.42.69,1.22.69Z"/>
    <path class="cls-1" d="m157.27,105.13h3.57c.82,0,1.22-.19,1.22-.69,0-.77-1.48-.8-1.48-1.86v-4.83c0-2.26,1.14-4.04,3.2-4.04,1.8,0,2.64,1.14,2.64,3.51v5.37c0,1.06-1.48,1.09-1.48,1.86,0,.51.42.69,1.22.69h3.57c.82,0,1.22-.19,1.22-.69,0-.77-1.48-.8-1.48-1.86v-5.9c0-3.45-1.53-5.23-4.6-5.23-2.11,0-3.49,1.06-4.31,2.52h-.1v-1.22c-.03-.88-.24-1.28-1.14-1.28-1.01,0-3.39.98-3.39,1.62,0,.53.42.66,1.24,1.14.24.13.4.43.37.88v7.46c0,1.06-1.48,1.09-1.48,1.86,0,.51.42.69,1.22.69Z"/>
    <path class="cls-1" d="m183.05,101.2c-.26,0-.45.11-.71.37-.95.98-1.82,1.51-3.17,1.51-2.56,0-4.34-1.94-4.6-4.76h7.35c1.19,0,1.69-.51,1.69-1.62,0-2.98-1.9-5.21-5.47-5.21-3.94,0-6.74,3-6.74,7.15s2.78,6.88,6.98,6.88c2.41,0,4.31-1.33,5.05-3.03.13-.24.18-.48.18-.69,0-.37-.24-.61-.55-.61Zm-5.29-8.37c1.88,0,2.7,1.36,2.7,3.48,0,.21-.03.61-.08.77h-5.84c.16-2.6,1.48-4.25,3.23-4.25Z"/>
    <path class="cls-1" d="m187.31,110.42c2.64,0,3.91-1.97,5.37-4.84.85-1.65,1.8-3.59,2.51-5.6.48-1.33.79-2.15,1.24-3.61.4-1.38,1.08-2.36,1.08-3.24,0-1.14-.66-1.7-1.8-1.7s-1.9.61-1.9,1.65c0,1.27.71,1.65.69,3.27,0,.93-.53,2.47-1.03,3.8-.56,1.54-1.01,1.97-1.61,1.97s-.92-.58-1.22-1.22c-.77-1.83-1.85-5.13-2.33-6.77-.21-.88,1.38-.8,1.38-1.59,0-.48-.21-.66-1.16-.66h-3.97c-.79,0-1.24.05-1.24.64,0,.85,1.06.9,1.4,1.7,1.08,2.66,2.35,6.19,3.41,8.34.64,1.25,1.51,1.91,3.01,1.91.24,0,.34-.03.53-.08-1,2.36-2.14,4.14-3.65,4.14s-1.69-1.49-2.67-1.49c-.66,0-1.32.43-1.32,1.41,0,1.06,1.27,1.99,3.28,1.99Z"/>
    <path class="cls-1" d="m209.97,105.53c4.26,0,7.38-3.03,7.38-7.25s-3.09-6.8-7.03-6.8-7.38,3-7.38,7.23c0,3.99,2.83,6.83,7.03,6.83Zm.71-1.49c-2.86,0-4.31-3.61-4.31-6.72,0-2.66,1.08-4.41,3.25-4.41,2.83,0,4.31,3.59,4.31,6.69,0,2.71-1.19,4.44-3.25,4.44Z"/>
    <path class="cls-1" d="m219.31,105.13h3.57c.82,0,1.22-.19,1.22-.69,0-.77-1.48-.8-1.48-1.86v-9.24h2.17c.58,0,.9-.21.9-.77s-.37-.72-.9-.72h-2.46c-.37-1.06-.48-1.59-.48-2.31,0-1.99.95-2.84,1.96-2.84.82,0,1.22.48,1.32,1.57.11.8.29,1.57,1.38,1.57.85,0,1.38-.61,1.38-1.43,0-1.38-1.11-3.11-3.68-3.11-2.35,0-4.6,1.35-4.6,5.31v1.25h-1.03c-.56,0-.85.27-.85.72,0,.43.26.77.79.77h1.06v9.24c0,1.06-1.48,1.09-1.48,1.86,0,.51.42.69,1.22.69Z"/>
    <path class="cls-1" d="m237.62,105.53c2.96,0,4.6-1.7,5.16-2.92.11-.24.21-.5.21-.82,0-.29-.21-.58-.55-.58-.24,0-.42.11-.69.37-.79.82-1.77,1.51-3.46,1.51-2.72,0-4.55-2.63-4.55-5.9,0-2.29,1.06-4.38,3.12-4.38,1.35,0,1.9.69,2.43,1.49.63.96,1.06,2.1,2.25,2.1.82,0,1.35-.59,1.35-1.41,0-1.59-2.27-3.53-5.32-3.53-3.97,0-7.01,2.82-7.01,7.28,0,3.82,2.64,6.8,7.06,6.8Z"/>
    <path class="cls-1" d="m244.55,105.13h3.57c.79,0,1.22-.19,1.22-.69,0-.77-1.48-.8-1.48-1.86l.03-4.81c0-2.28,1.06-4.04,3.12-4.04,1.8,0,2.7,1.57,2.7,4.75v4.12c0,1.06-1.48,1.09-1.48,1.86,0,.51.4.69,1.22.69h3.57c.79,0,1.22-.19,1.22-.69,0-.77-1.48-.8-1.48-1.86v-4.22c0-4.04-.55-6.91-4.55-6.91-2.04,0-3.46,1.06-4.36,2.5h-.08v-7.41c-.03-.88-.24-1.27-1.14-1.27-.82,0-3.41.98-3.41,1.62,0,.53.4.69,1.24,1.14.21.16.4.43.37.88v13.68c0,1.06-1.48,1.06-1.48,1.83,0,.51.4.69,1.22.69Z"/>
    <path class="cls-1" d="m265.68,105.53c4.26,0,7.38-3.03,7.38-7.25s-3.09-6.8-7.03-6.8-7.38,3-7.38,7.23c0,3.99,2.83,6.83,7.03,6.83Zm.71-1.49c-2.86,0-4.31-3.61-4.31-6.72,0-2.66,1.08-4.41,3.25-4.41,2.83,0,4.31,3.59,4.31,6.69,0,2.71-1.19,4.44-3.25,4.44Z"/>
    <path class="cls-1" d="m276.71,89.94c1.08,0,2.01-.74,2.01-1.91s-.93-1.91-2.01-1.91-2.06.74-2.06,1.91.95,1.91,2.06,1.91Zm-1.69,15.19h3.57c.82,0,1.22-.19,1.22-.69,0-.77-1.48-.8-1.48-1.86v-9.8c0-.85-.26-1.3-1.35-1.3-1,0-3.33.72-3.33,1.46,0,.51.37.53,1.08,1.06.4.32.56.64.56,1.27v7.31c0,1.06-1.48,1.09-1.48,1.86,0,.51.42.69,1.22.69Z"/>
    <path class="cls-1" d="m287.39,105.53c2.96,0,4.6-1.7,5.16-2.92.11-.24.21-.5.21-.82,0-.29-.21-.58-.55-.58-.24,0-.42.11-.69.37-.79.82-1.77,1.51-3.46,1.51-2.72,0-4.55-2.63-4.55-5.9,0-2.29,1.06-4.38,3.12-4.38,1.35,0,1.9.69,2.43,1.49.63.96,1.06,2.1,2.25,2.1.82,0,1.35-.59,1.35-1.41,0-1.59-2.27-3.53-5.32-3.53-3.97,0-7.01,2.82-7.01,7.28,0,3.82,2.64,6.8,7.06,6.8Z"/>
    <path class="cls-1" d="m304.96,101.2c-.26,0-.45.11-.71.37-.95.98-1.82,1.51-3.17,1.51-2.57,0-4.34-1.94-4.6-4.76h7.35c1.19,0,1.69-.51,1.69-1.62,0-2.98-1.9-5.21-5.47-5.21-3.94,0-6.74,3-6.74,7.15s2.78,6.88,6.98,6.88c2.41,0,4.31-1.33,5.05-3.03.13-.24.18-.48.18-.69,0-.37-.24-.61-.55-.61Zm-5.29-8.37c1.88,0,2.7,1.36,2.7,3.48,0,.21-.03.61-.08.77h-5.84c.16-2.6,1.48-4.25,3.23-4.25Z"/>
    <path class="cls-1" d="m311.54,105.53c3.28,0,5.26-1.73,5.26-3.9,0-2.31-1.9-3.43-3.94-4.33-2.93-1.28-3.46-1.86-3.46-2.92,0-.88.66-1.57,1.9-1.57,2.67,0,2.38,2.58,4.28,2.58.69,0,1.11-.56,1.11-1.22,0-1.38-2.01-2.71-5-2.71s-5.1,1.41-5.1,3.77,2.06,3.35,4.2,4.25c1.77.8,3.12,1.49,3.12,2.92,0,1.12-.77,1.78-2.19,1.78-2.72,0-2.46-2.87-4.34-2.87-.71,0-1.22.53-1.22,1.25,0,1.22,1.67,2.98,5.37,2.98Z"/>
  </g>
</svg>