<svg width="374" height="210" viewBox="0 0 374 210" fill="none" xmlns="http://www.w3.org/2000/svg">
<path d="M374 97.3495C374 150.838 330.84 194.199 277.6 194.199C224.359 194.199 181.199 150.838 181.199 97.3495C181.199 43.861 224.359 0.5 277.6 0.5C330.84 0.5 374 43.861 374 97.3495Z" fill="#E24B33"/>
<path d="M14.7183 147.434C16.4053 147.434 18.0062 147.607 19.5211 147.953C21.0359 148.299 22.4131 148.87 23.6525 149.665C24.8919 150.461 25.9936 151.516 26.9576 152.83C27.9216 154.11 28.7135 155.701 29.3332 157.604C30.4694 157.396 31.0374 156.791 31.0374 155.788C31.0374 154.992 30.7448 153.989 30.1595 152.778C29.6087 151.568 28.6963 150.392 27.4224 149.25C26.183 148.109 24.5304 147.14 22.4647 146.345C20.4334 145.515 17.9546 145.1 15.0281 145.1C13.3755 145.1 11.9467 145.238 10.7417 145.515C9.57117 145.791 8.58995 146.085 7.79809 146.397C6.59309 145.774 5.50859 144.979 4.54458 144.01C3.58058 143.007 2.75429 141.883 2.06572 140.638C1.41158 139.392 0.895145 138.044 0.51643 136.591C0.172143 135.138 0 133.651 0 132.129C0 127.874 0.91236 124.225 2.73708 121.181C4.5618 118.137 6.93738 115.664 9.86381 113.762C12.8247 111.825 16.147 110.407 19.8309 109.508C23.5148 108.608 27.2159 108.159 30.9342 108.159C34.2737 108.159 37.3035 108.366 40.0233 108.781C42.7432 109.196 45.1704 109.75 47.305 110.441C49.4396 111.099 51.2987 111.86 52.8824 112.724C54.5006 113.554 55.8605 114.402 56.9622 115.267C57.3409 116.373 57.6336 117.584 57.8402 118.898C58.0467 120.213 58.15 121.579 58.15 122.997C58.15 123.931 58.0639 124.917 57.8918 125.955C57.7541 126.958 57.5303 127.944 57.2204 128.912C56.9106 129.88 56.5147 130.797 56.0327 131.662C55.5507 132.527 54.9826 133.27 54.3284 133.893C53.7776 133.512 52.9685 133.097 51.9012 132.648C50.8339 132.163 49.6117 131.731 48.2346 131.351C46.8918 130.935 45.4286 130.59 43.8449 130.313C42.2612 130.036 40.6775 129.898 39.0938 129.898C36.9247 129.898 35.4099 130.053 34.5492 130.365C33.7229 130.676 33.3097 131.16 33.3097 131.817C33.3097 132.163 33.3614 132.457 33.4647 132.699C34.1532 132.527 34.9107 132.405 35.737 132.336C36.5632 132.267 37.3551 132.233 38.1125 132.233C41.0734 132.233 43.9826 132.613 46.8402 133.374C49.6978 134.1 52.2455 135.328 54.4834 137.058C56.7557 138.753 58.5804 141.001 59.9575 143.803C61.3347 146.604 62.0232 150.046 62.0232 154.127C62.0232 157.344 61.3347 160.388 59.9575 163.259C58.5804 166.13 56.5491 168.655 53.8637 170.834C51.2126 173.013 47.9075 174.743 43.9482 176.022C40.0233 177.302 35.4787 177.942 30.3144 177.942C27.6634 177.942 25.1846 177.838 22.8778 177.631C20.5711 177.458 18.3677 177.146 16.2675 176.697C14.1674 176.282 12.1533 175.728 10.2253 175.037C8.29731 174.31 6.38652 173.445 4.49294 172.442C3.35679 170.782 2.42722 169.018 1.70422 167.15C0.981217 165.282 0.619716 163.155 0.619716 160.769C0.619716 158.901 0.964003 157.154 1.65258 155.528C2.37558 153.903 3.3568 152.502 4.59623 151.326C5.83566 150.115 7.31609 149.164 9.03753 148.472C10.759 147.78 12.6525 147.434 14.7183 147.434Z" fill="#FFF5DC"/>
<path d="M91.8213 117.705C90.1343 117.809 88.5505 118.12 87.0701 118.639C85.5897 119.123 84.2986 119.694 83.1969 120.351C82.0952 120.974 81.2172 121.631 80.5631 122.323C79.9434 122.98 79.6335 123.568 79.6335 124.087C79.6335 124.502 79.7712 124.848 80.0467 125.124C80.3565 125.401 80.6836 125.574 81.0279 125.643C81.6476 124.917 82.4394 124.208 83.4035 123.516C84.3675 122.79 85.5036 122.15 86.8119 121.596C88.1202 121.008 89.6178 120.541 91.3048 120.196C92.9918 119.85 94.8854 119.677 96.9856 119.677C98.3627 119.677 99.8431 119.798 101.427 120.04C103.045 120.282 104.663 120.714 106.281 121.337C107.899 121.96 109.449 122.79 110.929 123.827C112.41 124.83 113.718 126.11 114.854 127.667C116.025 129.223 116.954 131.074 117.643 133.218C118.331 135.363 118.676 137.853 118.676 140.69C118.676 142.246 118.641 143.906 118.572 145.67C118.538 147.434 118.521 149.147 118.521 150.807C118.521 153.194 118.779 155.165 119.295 156.722C119.812 158.278 120.793 159.506 122.239 160.405C122.273 160.682 122.291 161.028 122.291 161.443C122.291 161.824 122.291 162.118 122.291 162.325C122.291 164.781 121.912 166.96 121.154 168.862C120.397 170.73 119.364 172.304 118.056 173.584C116.748 174.864 115.216 175.832 113.46 176.489C111.738 177.112 109.896 177.423 107.934 177.423C105.868 177.423 103.889 177.129 101.995 176.541C100.136 175.988 98.4832 175.071 97.0372 173.791C95.6256 172.477 94.4895 170.782 93.6288 168.707C92.8025 166.597 92.3893 164.02 92.3893 160.976C92.3893 159.35 92.441 157.811 92.5443 156.358C92.682 154.906 92.8197 153.557 92.9574 152.312C93.1295 151.032 93.2845 149.856 93.4222 148.783C93.5599 147.711 93.6288 146.725 93.6288 145.826C93.6288 144.166 93.4394 143.042 93.0607 142.454C92.7164 141.831 92.1483 141.52 91.3565 141.52C90.84 141.52 90.358 141.658 89.9105 141.935L90.5818 150.392C90.4097 151.429 90.2547 152.484 90.117 153.557C90.0137 154.594 89.9277 155.58 89.8588 156.514C89.79 157.448 89.7383 158.295 89.7039 159.056C89.6695 159.817 89.6523 160.44 89.6523 160.924C89.6523 163.622 89.9105 165.853 90.4269 167.617C90.9778 169.381 91.5975 170.903 92.286 172.183C90.7712 173.774 88.7915 175.054 86.3471 176.022C83.9371 176.956 81.1828 177.423 78.0842 177.423C76.5349 177.423 74.9512 177.198 73.3331 176.749C71.7493 176.299 70.3033 175.625 68.995 174.725C67.7212 173.791 66.6711 172.65 65.8448 171.301C65.0185 169.917 64.6054 168.292 64.6054 166.424V105.876C66.1891 104.942 68.1343 104.164 70.4411 103.541C72.7822 102.884 75.175 102.555 77.6194 102.555C79.4097 102.555 81.1484 102.745 82.8354 103.126C84.5568 103.506 86.0717 104.112 87.38 104.942C88.7227 105.737 89.79 106.792 90.5818 108.107C91.4081 109.386 91.8213 110.943 91.8213 112.776V117.705Z" fill="#FFF5DC"/>
<path d="M149.455 153.349C148.663 153.349 148.095 153.557 147.751 153.972C147.441 154.352 147.286 154.802 147.286 155.321C147.286 156.013 147.527 156.497 148.009 156.774C148.525 157.05 149.128 157.189 149.816 157.189C150.918 157.189 151.762 156.912 152.347 156.358C152.932 155.805 153.225 154.802 153.225 153.349H149.455ZM176.258 150.807C176.258 153.194 176.516 155.165 177.032 156.722C177.549 158.278 178.53 159.506 179.976 160.405C180.01 160.682 180.027 161.028 180.027 161.443C180.027 161.824 180.027 162.118 180.027 162.325C180.027 164.954 179.614 167.219 178.788 169.122C177.962 171.024 176.877 172.598 175.535 173.843C174.226 175.054 172.729 175.953 171.042 176.541C169.355 177.129 167.633 177.423 165.877 177.423C164.638 177.423 163.416 177.268 162.211 176.956C161.04 176.68 159.921 176.247 158.854 175.659C157.821 175.071 156.874 174.327 156.014 173.428C155.187 172.494 154.533 171.405 154.051 170.159C153.466 170.159 153.018 170.315 152.708 170.626C152.433 170.938 152.295 171.353 152.295 171.872C152.295 172.356 152.45 172.875 152.76 173.428C153.07 173.982 153.517 174.552 154.103 175.14C153.001 175.901 151.521 176.472 149.661 176.852C147.802 177.233 145.909 177.423 143.981 177.423C140.848 177.423 137.99 176.991 135.408 176.126C132.86 175.261 130.657 173.982 128.798 172.287C126.973 170.592 125.544 168.534 124.511 166.113C123.513 163.657 123.014 160.838 123.014 157.656C123.014 154.37 123.547 151.533 124.615 149.147C125.716 146.725 127.197 144.737 129.056 143.18C130.915 141.589 133.067 140.413 135.511 139.652C137.99 138.891 140.607 138.51 143.361 138.51C144.6 138.51 145.702 138.562 146.666 138.666C147.63 138.735 148.456 138.822 149.145 138.926C149.937 139.064 150.608 139.202 151.159 139.341C151.262 138.995 151.314 138.701 151.314 138.459C151.314 138.009 151.073 137.628 150.591 137.317C150.143 137.006 149.541 136.781 148.783 136.643C148.026 136.47 147.148 136.349 146.15 136.279C145.151 136.21 144.136 136.176 143.103 136.176C140.762 136.176 138.42 136.435 136.079 136.954C133.738 137.473 131.638 138.268 129.779 139.341C129.021 138.061 128.402 136.435 127.92 134.464C127.472 132.492 127.248 130.486 127.248 128.445C127.248 127.477 127.3 126.508 127.403 125.54C127.541 124.536 127.799 123.654 128.178 122.893C129.073 122.478 130.209 122.029 131.586 121.545C132.998 121.026 134.616 120.559 136.441 120.144C138.3 119.694 140.331 119.314 142.535 119.002C144.773 118.691 147.165 118.535 149.713 118.535C154.154 118.535 158.028 119.037 161.333 120.04C164.672 121.043 167.444 122.496 169.647 124.398C171.851 126.266 173.503 128.583 174.605 131.351C175.707 134.083 176.258 137.179 176.258 140.638V150.807Z" fill="#FFF5DC"/>
<path d="M209.309 172.131C207.794 173.722 205.815 175.002 203.37 175.97C200.96 176.939 198.206 177.423 195.107 177.423C193.558 177.423 191.974 177.198 190.356 176.749C188.772 176.299 187.326 175.625 186.018 174.725C184.744 173.791 183.694 172.65 182.868 171.301C182.042 169.917 181.628 168.292 181.628 166.424V105.876C183.212 104.942 185.157 104.164 187.464 103.541C189.805 102.884 192.198 102.555 194.642 102.555C196.433 102.555 198.171 102.745 199.858 103.126C201.58 103.506 203.095 104.112 204.403 104.942C205.746 105.737 206.813 106.792 207.605 108.107C208.431 109.386 208.844 110.943 208.844 112.776V118.276C208.844 120.87 208.603 123.291 208.121 125.54C207.674 127.788 207.106 129.863 206.417 131.766C206.176 132.146 205.815 132.596 205.333 133.115C204.851 133.633 204.369 134.17 203.887 134.723C203.439 135.276 203.043 135.813 202.699 136.331C202.354 136.85 202.182 137.283 202.182 137.628C202.182 138.251 202.595 138.77 203.422 139.185C204.833 137.871 206.056 136.522 207.088 135.138C208.156 133.754 209.103 132.267 209.929 130.676C210.755 129.05 211.478 127.304 212.098 125.436C212.752 123.533 213.372 121.423 213.957 119.106C214.405 119.037 214.955 118.95 215.61 118.847C216.298 118.708 216.987 118.587 217.675 118.483C218.398 118.345 219.07 118.241 219.689 118.172C220.343 118.068 220.877 118.016 221.29 118.016C223.872 118.016 226.196 118.328 228.262 118.95C230.362 119.538 232.135 120.438 233.581 121.648C235.027 122.824 236.146 124.294 236.938 126.058C237.73 127.788 238.126 129.794 238.126 132.077C238.126 134.221 237.764 136.176 237.041 137.94C236.318 139.704 235.32 141.295 234.046 142.713C232.807 144.097 231.361 145.307 229.708 146.345C228.055 147.348 226.3 148.178 224.44 148.835C225.37 149.389 226.282 149.873 227.178 150.288C228.073 150.669 228.985 151.014 229.915 151.326C230.844 151.637 231.825 151.914 232.858 152.156C233.926 152.398 235.113 152.623 236.422 152.83C237.351 154.525 238.04 156.255 238.487 158.019C238.969 159.783 239.21 161.512 239.21 163.207C239.21 165.144 238.901 166.977 238.281 168.707C237.696 170.436 236.783 171.958 235.544 173.272C234.339 174.552 232.807 175.573 230.947 176.334C229.123 177.06 226.988 177.423 224.544 177.423C222.134 177.423 219.93 176.956 217.933 176.022C215.971 175.054 214.25 173.688 212.769 171.924C211.289 170.159 210.084 168.015 209.154 165.49C208.225 162.965 207.605 160.129 207.295 156.981L204.816 158.071C204.816 159.247 204.937 160.475 205.178 161.754C205.419 163.034 205.729 164.297 206.107 165.542C206.52 166.752 207.002 167.928 207.553 169.07C208.104 170.211 208.689 171.232 209.309 172.131Z" fill="#FFF5DC"/>
<path d="M247.51 143.699H250.712C251.607 143.699 252.262 143.543 252.675 143.232C253.088 142.921 253.294 142.506 253.294 141.987C253.294 141.779 253.26 141.572 253.191 141.364H241.623C241.244 140.119 240.952 138.753 240.745 137.265C240.573 135.743 240.487 134.204 240.487 132.648C240.487 131.645 240.539 130.503 240.642 129.223C240.78 127.909 240.952 126.819 241.158 125.955C242.604 125.055 244.033 124.087 245.445 123.049C246.891 122.011 248.165 121.078 249.266 120.247C249.576 119.521 249.938 118.57 250.351 117.394C250.764 116.218 251.177 114.99 251.59 113.71C252.003 112.43 252.399 111.202 252.778 110.026C253.157 108.816 253.484 107.813 253.759 107.017C254.861 106.74 256.324 106.498 258.149 106.291C259.974 106.083 261.833 105.979 263.726 105.979C265.207 105.979 266.687 106.066 268.168 106.239C269.682 106.412 271.335 106.689 273.125 107.069V119.78H282.06C283.058 121.302 283.798 123.015 284.28 124.917C284.797 126.785 285.055 128.653 285.055 130.52C285.055 132.284 284.797 134.17 284.28 136.176C283.798 138.147 283.058 139.859 282.06 141.312H274.675V149.147C274.675 151.533 275.157 153.245 276.121 154.283C277.085 155.286 278.445 155.788 280.2 155.788H282.421C282.697 156.825 282.938 157.932 283.144 159.108C283.385 160.284 283.506 161.46 283.506 162.636C283.506 167.444 282.008 171.111 279.013 173.636C276.017 176.161 271.748 177.423 266.205 177.423C263.416 177.423 260.869 177.043 258.562 176.282C256.29 175.521 254.327 174.362 252.675 172.806C251.022 171.249 249.748 169.312 248.853 166.995C247.958 164.643 247.51 161.875 247.51 158.693V143.699Z" fill="#FFF5DC"/>
<path d="M287.637 126.577C288.326 126.128 289.014 125.764 289.703 125.488C290.391 125.211 291.132 124.865 291.923 124.45C291.269 124.104 290.598 123.62 289.909 122.997C289.221 122.375 288.584 121.631 287.999 120.766C287.448 119.867 286.983 118.847 286.604 117.705C286.26 116.564 286.088 115.284 286.088 113.866C286.088 111.652 286.466 109.646 287.224 107.847C288.016 106.014 289.083 104.458 290.426 103.178C291.768 101.863 293.335 100.843 295.125 100.117C296.916 99.3902 298.844 99.027 300.909 99.027C303.009 99.027 304.937 99.4075 306.693 100.168C308.484 100.929 310.033 101.967 311.341 103.281C312.649 104.596 313.665 106.17 314.388 108.003C315.146 109.802 315.524 111.756 315.524 113.866C315.524 115.664 315.214 117.342 314.595 118.898C314.009 120.42 313.218 121.787 312.219 122.997C311.221 124.208 310.05 125.228 308.707 126.058C307.365 126.854 305.97 127.407 304.524 127.719C304.524 128.238 304.628 128.704 304.834 129.12C305.075 129.5 305.471 129.69 306.022 129.69C307.743 129.69 309.534 128.998 311.393 127.615C311.496 127.684 311.668 127.805 311.909 127.978C312.15 128.151 312.408 128.359 312.684 128.601C312.959 128.843 313.218 129.085 313.459 129.327C313.7 129.535 313.854 129.69 313.923 129.794V150.34C313.923 152.727 314.182 154.785 314.698 156.514C315.214 158.209 316.196 159.506 317.642 160.405C317.676 160.682 317.693 161.028 317.693 161.443C317.693 161.824 317.693 162.118 317.693 162.325C317.693 164.954 317.332 167.219 316.609 169.122C315.886 171.024 314.87 172.598 313.562 173.843C312.254 175.054 310.687 175.953 308.862 176.541C307.072 177.129 305.11 177.423 302.975 177.423C301.322 177.423 299.584 177.146 297.759 176.593C295.969 176.04 294.316 175.106 292.801 173.791C291.321 172.477 290.082 170.73 289.083 168.551C288.119 166.337 287.637 163.588 287.637 160.302V126.577Z" fill="#FFF5DC"/>
<path d="M95.5233 204.559C97.7972 204.559 99.1986 203.736 100.256 202.009H100.362V202.407C100.362 203.603 101.34 204.559 102.795 204.559C103.958 204.559 104.725 204.054 104.725 203.443C104.725 202.381 103.244 203.018 103.244 201.292V195.766C103.218 192.313 101.843 190.48 98.0617 190.48C94.545 190.48 92.271 192.393 92.271 193.907C92.271 194.757 92.8527 195.235 93.5402 195.235C94.2806 195.235 94.6772 194.757 95.0209 193.933C95.6555 192.605 96.5809 191.702 97.9295 191.702C99.4895 191.702 100.018 192.711 100.018 193.827C100.018 195.076 99.5424 195.713 97.2684 196.563C94.0162 197.838 91.7951 198.848 91.7951 201.212C91.7951 203.071 93.17 204.559 95.5233 204.559ZM96.9247 202.46C95.682 202.46 94.8887 201.77 94.8887 200.654C94.8887 199.565 95.5762 198.821 97.6386 197.998L100.256 196.962V198.449C100.256 201.159 98.6169 202.46 96.9247 202.46Z" fill="#FFF5DC"/>
<path d="M112.906 188.939C114.043 188.992 114.916 188.169 114.916 187.053C114.916 185.937 114.043 185.114 112.906 185.114C111.769 185.114 110.923 185.937 110.923 187.053C110.923 188.116 111.769 188.939 112.906 188.939ZM109.918 209.5C112.589 209.5 114.466 207.667 114.466 203.39V191.808C114.44 190.958 114.202 190.506 113.118 190.506C112.086 190.506 109.786 191.224 109.786 191.967C109.786 192.472 110.156 192.499 110.87 193.03C111.267 193.349 111.425 193.668 111.425 194.305V202.753C111.425 203.204 111.531 203.709 111.637 204.161C111.875 205.276 112.139 206.365 111.663 207.215C111.373 207.747 110.976 208.039 110.262 208.039C109.442 208.039 109.046 207.348 108.914 206.445C108.755 205.675 108.543 204.904 107.486 204.904C106.613 204.904 106.058 205.515 106.058 206.339C106.058 207.747 107.221 209.5 109.918 209.5Z" fill="#FFF5DC"/>
<path d="M123.121 204.559C127.378 204.559 130.498 201.531 130.498 197.307C130.498 193.136 127.404 190.506 123.465 190.506C119.34 190.506 116.088 193.508 116.088 197.732C116.088 201.717 118.917 204.559 123.121 204.559ZM123.835 203.071C120.979 203.071 119.525 199.459 119.525 196.351C119.525 193.694 120.609 191.941 122.777 191.941C125.606 191.941 127.087 195.527 127.087 198.635C127.087 201.345 125.897 203.071 123.835 203.071Z" fill="#FFF5DC"/>
<path d="M137.193 204.24C138.779 204.24 140.233 203.496 141.37 201.743H141.476V202.965C141.503 203.842 141.714 204.24 142.613 204.24C143.618 204.24 145.998 203.257 145.998 202.62C145.998 202.089 145.601 201.929 144.755 201.478C144.543 201.318 144.358 201.053 144.385 200.601V191.914C144.385 190.931 144.147 190.506 143.168 190.506C142.692 190.506 141.079 190.931 140.286 191.436C139.969 191.649 139.784 191.861 139.784 192.074C139.784 192.578 140.207 192.711 141.027 193.163C141.238 193.296 141.37 193.535 141.37 193.854L141.344 197.971C141.344 200.229 140.366 201.982 138.065 201.982C136.082 201.982 135.527 200.335 135.527 197.998V191.888C135.5 190.931 135.289 190.506 134.311 190.506C133.861 190.506 132.354 190.905 131.428 191.41C131.111 191.622 130.9 191.861 130.9 192.074C130.9 192.578 131.323 192.711 132.142 193.163C132.354 193.296 132.486 193.535 132.486 193.854V197.971C132.486 201.451 133.068 204.24 137.193 204.24Z" fill="#FFF5DC"/>
<path d="M147.719 204.161H151.288C152.108 204.161 152.505 203.975 152.505 203.47C152.505 202.7 151.024 202.673 151.024 201.61V196.59C151.024 194.172 151.87 193.694 152.743 193.694C153.43 193.694 153.668 193.88 154.25 193.88C155.202 193.88 155.995 193.322 155.995 192.1C155.995 191.197 155.413 190.48 154.17 190.48C153.06 190.48 151.738 191.303 150.971 193.004H150.865V191.782C150.865 190.905 150.654 190.506 149.728 190.506C148.723 190.506 146.344 191.489 146.344 192.127C146.344 192.658 146.767 192.818 147.586 193.269C147.824 193.429 148.01 193.694 147.983 194.146V201.61C147.983 202.673 146.502 202.7 146.502 203.47C146.502 203.975 146.925 204.161 147.719 204.161Z" fill="#FFF5DC"/>
<path d="M157.271 204.161H160.84C161.66 204.161 162.056 203.975 162.056 203.47C162.056 202.7 160.576 202.673 160.576 201.61V196.776C160.576 194.518 161.713 192.738 163.775 192.738C165.573 192.738 166.419 193.88 166.419 196.244V201.61C166.419 202.673 164.939 202.7 164.939 203.47C164.939 203.975 165.362 204.161 166.155 204.161H169.724C170.544 204.161 170.941 203.975 170.941 203.47C170.941 202.7 169.46 202.673 169.46 201.61V195.713C169.46 192.26 167.926 190.48 164.859 190.48C162.744 190.48 161.369 191.542 160.549 193.004H160.444V191.782C160.417 190.905 160.206 190.506 159.307 190.506C158.302 190.506 155.922 191.489 155.922 192.127C155.922 192.658 156.345 192.791 157.165 193.269C157.403 193.402 157.561 193.694 157.535 194.146V201.61C157.535 202.673 156.054 202.7 156.054 203.47C156.054 203.975 156.477 204.161 157.271 204.161Z" fill="#FFF5DC"/>
<path d="M183.05 200.229C182.785 200.229 182.6 200.335 182.336 200.601C181.384 201.584 180.511 202.115 179.163 202.115C176.598 202.115 174.826 200.176 174.562 197.36H181.913C183.102 197.36 183.605 196.855 183.605 195.74C183.605 192.764 181.701 190.533 178.131 190.533C174.192 190.533 171.389 193.535 171.389 197.679C171.389 201.77 174.165 204.559 178.369 204.559C180.776 204.559 182.679 203.231 183.42 201.531C183.552 201.292 183.605 201.053 183.605 200.84C183.605 200.468 183.367 200.229 183.05 200.229ZM177.761 191.861C179.639 191.861 180.458 193.216 180.458 195.341C180.458 195.554 180.432 195.952 180.379 196.112H174.535C174.694 193.508 176.016 191.861 177.761 191.861Z" fill="#FFF5DC"/>
<path d="M187.309 209.447C189.954 209.447 191.223 207.481 192.677 204.612C193.523 202.965 194.475 201.026 195.189 199.007C195.665 197.679 195.982 196.855 196.432 195.394C196.828 194.013 197.516 193.03 197.516 192.153C197.516 191.011 196.855 190.453 195.718 190.453C194.607 190.453 193.814 191.064 193.814 192.1C193.814 193.375 194.528 193.747 194.501 195.368C194.501 196.298 193.973 197.838 193.47 199.166C192.915 200.707 192.465 201.132 191.857 201.132C191.249 201.132 190.932 200.548 190.641 199.91C189.874 198.077 188.79 194.783 188.314 193.136C188.103 192.26 189.689 192.339 189.689 191.542C189.689 191.064 189.478 190.878 188.526 190.878H184.56C183.766 190.878 183.317 190.931 183.317 191.516C183.317 192.366 184.374 192.419 184.718 193.216C185.802 195.872 187.071 199.406 188.129 201.557C188.764 202.806 189.636 203.47 191.143 203.47C191.381 203.47 191.487 203.443 191.672 203.39C190.667 205.754 189.531 207.534 188.023 207.534C186.516 207.534 186.331 206.047 185.353 206.047C184.692 206.047 184.031 206.472 184.031 207.455C184.031 208.517 185.3 209.447 187.309 209.447Z" fill="#FFF5DC"/>
<path d="M209.97 204.559C214.227 204.559 217.347 201.531 217.347 197.307C217.347 193.136 214.253 190.506 210.314 190.506C206.189 190.506 202.937 193.508 202.937 197.732C202.937 201.717 205.766 204.559 209.97 204.559ZM210.684 203.071C207.828 203.071 206.374 199.459 206.374 196.351C206.374 193.694 207.458 191.941 209.626 191.941C212.455 191.941 213.936 195.527 213.936 198.635C213.936 201.345 212.746 203.071 210.684 203.071Z" fill="#FFF5DC"/>
<path d="M219.31 204.161H222.879C223.699 204.161 224.096 203.975 224.096 203.47C224.096 202.7 222.615 202.673 222.615 201.61V192.366H224.783C225.365 192.366 225.682 192.153 225.682 191.596C225.682 191.038 225.312 190.878 224.783 190.878H222.324C221.954 189.816 221.848 189.284 221.848 188.567C221.848 186.575 222.8 185.725 223.805 185.725C224.625 185.725 225.021 186.203 225.127 187.292C225.233 188.089 225.418 188.859 226.502 188.859C227.348 188.859 227.877 188.248 227.877 187.425C227.877 186.044 226.766 184.317 224.202 184.317C221.848 184.317 219.601 185.672 219.601 189.63V190.878H218.57C218.014 190.878 217.723 191.144 217.723 191.596C217.723 192.021 217.988 192.366 218.517 192.366H219.574V201.61C219.574 202.673 218.094 202.7 218.094 203.47C218.094 203.975 218.517 204.161 219.31 204.161Z" fill="#FFF5DC"/>
<path d="M237.619 204.559C240.581 204.559 242.22 202.859 242.775 201.637C242.881 201.398 242.987 201.132 242.987 200.813C242.987 200.521 242.775 200.229 242.432 200.229C242.194 200.229 242.008 200.335 241.744 200.601C240.951 201.424 239.972 202.115 238.28 202.115C235.557 202.115 233.732 199.485 233.732 196.218C233.732 193.933 234.79 191.835 236.852 191.835C238.201 191.835 238.756 192.525 239.285 193.322C239.92 194.279 240.343 195.421 241.533 195.421C242.352 195.421 242.881 194.836 242.881 194.013C242.881 192.419 240.607 190.48 237.566 190.48C233.6 190.48 230.559 193.296 230.559 197.759C230.559 201.584 233.204 204.559 237.619 204.559Z" fill="#FFF5DC"/>
<path d="M244.551 204.161H248.121C248.914 204.161 249.337 203.975 249.337 203.47C249.337 202.7 247.856 202.673 247.856 201.61L247.883 196.802C247.883 194.518 248.94 192.764 251.003 192.764C252.801 192.764 253.7 194.332 253.7 197.519V201.637C253.7 202.7 252.219 202.726 252.219 203.496C252.219 204.001 252.616 204.187 253.435 204.187H257.005C257.798 204.187 258.221 204.001 258.221 203.496C258.221 202.726 256.74 202.7 256.74 201.637V197.413C256.74 193.375 256.185 190.506 252.192 190.506C250.157 190.506 248.729 191.569 247.83 193.004H247.75V185.592C247.724 184.715 247.512 184.317 246.613 184.317C245.794 184.317 243.202 185.3 243.202 185.937C243.202 186.469 243.599 186.628 244.445 187.08C244.657 187.239 244.842 187.505 244.815 187.956V201.637C244.815 202.7 243.335 202.7 243.335 203.47C243.335 203.975 243.731 204.161 244.551 204.161Z" fill="#FFF5DC"/>
<path d="M265.682 204.559C269.939 204.559 273.06 201.531 273.06 197.307C273.06 193.136 269.966 190.506 266.026 190.506C261.901 190.506 258.649 193.508 258.649 197.732C258.649 201.717 261.478 204.559 265.682 204.559ZM266.396 203.071C263.541 203.071 262.086 199.459 262.086 196.351C262.086 193.694 263.171 191.941 265.339 191.941C268.168 191.941 269.649 195.527 269.649 198.635C269.649 201.345 268.459 203.071 266.396 203.071Z" fill="#FFF5DC"/>
<path d="M276.714 188.966C277.798 188.966 278.724 188.222 278.724 187.053C278.724 185.884 277.798 185.14 276.714 185.14C275.603 185.14 274.652 185.884 274.652 187.053C274.652 188.222 275.603 188.966 276.714 188.966ZM275.022 204.161H278.591C279.411 204.161 279.808 203.975 279.808 203.47C279.808 202.7 278.327 202.673 278.327 201.61V191.808C278.327 190.958 278.063 190.506 276.978 190.506C275.974 190.506 273.647 191.224 273.647 191.967C273.647 192.472 274.017 192.499 274.731 193.03C275.128 193.349 275.286 193.668 275.286 194.305V201.61C275.286 202.673 273.805 202.7 273.805 203.47C273.805 203.975 274.229 204.161 275.022 204.161Z" fill="#FFF5DC"/>
<path d="M287.395 204.559C290.356 204.559 291.996 202.859 292.551 201.637C292.657 201.398 292.762 201.132 292.762 200.813C292.762 200.521 292.551 200.229 292.207 200.229C291.969 200.229 291.784 200.335 291.52 200.601C290.726 201.424 289.748 202.115 288.056 202.115C285.332 202.115 283.508 199.485 283.508 196.218C283.508 193.933 284.566 191.835 286.628 191.835C287.976 191.835 288.532 192.525 289.061 193.322C289.695 194.279 290.118 195.421 291.308 195.421C292.128 195.421 292.657 194.836 292.657 194.013C292.657 192.419 290.383 190.48 287.342 190.48C283.376 190.48 280.335 193.296 280.335 197.759C280.335 201.584 282.979 204.559 287.395 204.559Z" fill="#FFF5DC"/>
<path d="M304.956 200.229C304.692 200.229 304.506 200.335 304.242 200.601C303.29 201.584 302.418 202.115 301.069 202.115C298.504 202.115 296.733 200.176 296.468 197.36H303.819C305.009 197.36 305.511 196.855 305.511 195.74C305.511 192.764 303.607 190.533 300.038 190.533C296.098 190.533 293.295 193.535 293.295 197.679C293.295 201.77 296.072 204.559 300.276 204.559C302.682 204.559 304.586 203.231 305.326 201.531C305.458 201.292 305.511 201.053 305.511 200.84C305.511 200.468 305.273 200.229 304.956 200.229ZM299.668 191.861C301.545 191.861 302.365 193.216 302.365 195.341C302.365 195.554 302.338 195.952 302.285 196.112H296.442C296.601 193.508 297.923 191.861 299.668 191.861Z" fill="#FFF5DC"/>
<path d="M311.543 204.559C314.821 204.559 316.804 202.832 316.804 200.654C316.804 198.343 314.901 197.227 312.865 196.324C309.93 195.049 309.401 194.465 309.401 193.402C309.401 192.525 310.062 191.835 311.305 191.835C313.975 191.835 313.684 194.411 315.588 194.411C316.276 194.411 316.699 193.854 316.699 193.189C316.699 191.808 314.689 190.48 311.701 190.48C308.634 190.48 306.598 191.888 306.598 194.252C306.598 196.643 308.661 197.599 310.802 198.502C312.574 199.299 313.922 199.99 313.922 201.424C313.922 202.54 313.156 203.204 311.728 203.204C309.004 203.204 309.269 200.335 307.391 200.335C306.677 200.335 306.175 200.867 306.175 201.584C306.175 202.806 307.841 204.559 311.543 204.559Z" fill="#FFF5DC"/>
</svg>
